<svg xmlns="http://www.w3.org/2000/svg" version="1.1" xmlns:xlink="http://www.w3.org/1999/xlink" viewBox="0 0 200 200" width="200" height="200"><metadata><rdf:RDF xmlns:rdf="http://www.w3.org/1999/02/22-rdf-syntax-ns#" xmlns:dc="http://purl.org/dc/elements/1.1/"><rdf:Description><dc:creator>RealFaviconGenerator</dc:creator><dc:source>https://realfavicongenerator.net</dc:source></rdf:Description></rdf:RDF></metadata><rect width="200" height="200" fill="url('#gradient')"></rect><defs><linearGradient id="gradient" gradientTransform="rotate(121 0.5 0.5)"><stop offset="0%" stop-color="#5aa3a6"></stop><stop offset="100%" stop-color="#ded2bb"></stop></linearGradient></defs><g><g fill="#5c9ea9" transform="matrix(3.550542960563917,0,0,3.550542960563917,5.196398532388329,125.24861738645001)" stroke="#254440" stroke-width="0.6"><path d="M1.07-14.22L5.58-14.22L8.75-4.33L11.91-14.22L16.43-14.22L16.43 0L12.99 0L12.99-3.32L13.32-10.12L9.88 0L7.62 0L4.17-10.13L4.50-3.32L4.50 0L1.07 0L1.07-14.22ZM28.28-14.22L28.28-12.46L22.97 0L19.49 0L24.81-11.68L18.04-11.68L18.04-14.22L28.28-14.22ZM40.76-12.46L34.03-2.64L40.83-2.64L40.83 0L29.76 0L29.76-1.81L36.53-11.57L29.72-11.57L29.72-14.22L40.76-14.22L40.76-12.46ZM49.63-14.42L50.13-14.42L50.13-11.84L49.98-11.84Q48.13-11.84 46.95-10.95Q45.76-10.07 45.49-8.50L45.49-8.50Q46.60-9.59 48.30-9.59L48.30-9.59Q50.15-9.59 51.24-8.24Q52.33-6.89 52.33-4.71L52.33-4.71Q52.33-3.35 51.69-2.22Q51.05-1.08 49.91-0.44Q48.76 0.20 47.36 0.20L47.36 0.20Q45.85 0.20 44.66-0.49Q43.47-1.18 42.80-2.46Q42.14-3.74 42.12-5.41L42.12-5.41L42.12-6.73Q42.12-8.93 43.06-10.68Q44.00-12.43 45.75-13.43Q47.50-14.42 49.63-14.42L49.63-14.42ZM47.16-7.07L47.16-7.07Q46.50-7.07 46.06-6.77Q45.63-6.46 45.41-6.03L45.41-6.03L45.41-5.04Q45.41-2.34 47.28-2.34L47.28-2.34Q48.03-2.34 48.53-3.02Q49.03-3.69 49.03-4.71L49.03-4.71Q49.03-5.75 48.52-6.41Q48.01-7.07 47.16-7.07Z"></path></g></g><style>@media (prefers-color-scheme: light) { :root { filter: none; } }
@media (prefers-color-scheme: dark) { :root { filter: none; } }
</style></svg>