<svg xmlns="http://www.w3.org/2000/svg" version="1.1" xmlns:xlink="http://www.w3.org/1999/xlink" width="1000" height="1000"><g clip-path="url(#SvgjsClipPath1001)"><rect width="1000" height="1000" fill="#ffffff"></rect><g transform="matrix(3.5,0,0,3.5,150,150)"><svg xmlns="http://www.w3.org/2000/svg" version="1.1" xmlns:xlink="http://www.w3.org/1999/xlink" viewBox="0 0 200 200" width="200" height="200"><rect width="200" height="200" fill="url('#gradient')"></rect><defs><linearGradient id="gradient" gradientTransform="rotate(240 0.5 0.5)"><stop offset="0%" stop-color="#353664"></stop><stop offset="100%" stop-color="#211c36"></stop></linearGradient><clipPath id="SvgjsClipPath1001"><rect width="1000" height="1000" x="0" y="0" rx="350" ry="350"></rect></clipPath></defs><g><g fill="#e8e7a2" transform="matrix(3.538250046442504,0,0,3.538250046442504,3.207771796235008,125.16121477126721)" stroke="#a9e59f" stroke-width="0.25"><path d="M1.07-14.22L5.58-14.22L8.75-4.33L11.91-14.22L16.43-14.22L16.43 0L12.99 0L12.99-3.32L13.32-10.12L9.88 0L7.62 0L4.17-10.13L4.50-3.32L4.50 0L1.07 0L1.07-14.22ZM25.69-14.22L25.69 0L22.39 0L22.39-10.51L19.15-9.56L19.15-12.06L25.39-14.22L25.69-14.22ZM32.99-6.04L32.99-8.49L34.54-8.49Q36.39-8.49 36.39-10.29L36.39-10.29Q36.39-11.00 35.95-11.44Q35.51-11.88 34.71-11.88L34.71-11.88Q34.05-11.88 33.57-11.50Q33.09-11.12 33.09-10.56L33.09-10.56L29.79-10.56Q29.79-11.68 30.42-12.56Q31.04-13.44 32.15-13.93Q33.26-14.42 34.59-14.42L34.59-14.42Q36.96-14.42 38.32-13.34Q39.68-12.26 39.68-10.36L39.68-10.36Q39.68-9.44 39.12-8.63Q38.55-7.81 37.48-7.30L37.48-7.30Q38.61-6.89 39.26-6.06Q39.90-5.22 39.90-3.99L39.90-3.99Q39.90-2.09 38.44-0.95Q36.97 0.20 34.59 0.20L34.59 0.20Q33.19 0.20 32.00-0.34Q30.80-0.87 30.19-1.81Q29.57-2.75 29.57-3.96L29.57-3.96L32.88-3.96Q32.88-3.30 33.41-2.82Q33.94-2.34 34.71-2.34L34.71-2.34Q35.58-2.34 36.09-2.83Q36.61-3.31 36.61-4.06L36.61-4.06Q36.61-5.14 36.07-5.59Q35.54-6.04 34.59-6.04L34.59-6.04L32.99-6.04ZM53.64-14.22L53.64 0L50.23 0L45.20-8.85L45.20 0L41.77 0L41.77-14.22L45.20-14.22L50.22-5.37L50.22-14.22L53.64-14.22Z"></path></g></g></svg></g></g></svg>